<svg width="32" height="32" viewBox="0 0 32 32" fill="none" xmlns="http://www.w3.org/2000/svg">
  <!-- Background -->
  <rect width="32" height="32" fill="black" rx="6"/>
  
  <!-- Open Book -->
  <path d="M6 10 L6 6 Q6 4 8 4 L12 4 Q14 4 14 6 L14 10 Q14 12 12 12 L8 12 Q6 12 6 10 Z" fill="white" stroke="#FFD700" stroke-width="0.8"/>
  <path d="M8 4 L12 4 L12 12 L8 12" fill="none" stroke="#FFD700" stroke-width="0.6"/>
  
  <!-- Chart/Arrow -->
  <path d="M4 14 L6 12 L8 13 L10 11 L12 9 L14 7" stroke="#FFD700" stroke-width="1" fill="none"/>
  <path d="M13 8 L15 6 L13 4" stroke="#FFD700" stroke-width="1" fill="none"/>
  
  <!-- Letter T -->
  <path d="M18 6 L26 6 L26 8 L23 8 L23 12 L26 12 L26 14 L18 14 L18 12 L21 12 L21 8 L18 8 Z" fill="#FFD700"/>
  
  <!-- Letter S -->
  <path d="M18 18 Q18 16 20 16 L22 16 Q24 16 24 18 Q24 19 23 19 L21 19 L21 20 Q21 21 20 21 L22 21 Q24 21 24 23 Q24 24 22 24 L20 24 Q18 24 18 22" fill="#FFD700"/>
</svg>

